<?xml version="1.0" encoding="UTF-8" standalone="no"?>
<!-- Generator: Adobe Illustrator 13.0.0, SVG Export Plug-In . SVG Version: 6.00 Build 14948)  -->

<svg
   xmlns:dc="http://purl.org/dc/elements/1.1/"
   xmlns:cc="http://creativecommons.org/ns#"
   xmlns:rdf="http://www.w3.org/1999/02/22-rdf-syntax-ns#"
   xmlns:svg="http://www.w3.org/2000/svg"
   xmlns="http://www.w3.org/2000/svg"
   xmlns:xlink="http://www.w3.org/1999/xlink"
   xmlns:sodipodi="http://sodipodi.sourceforge.net/DTD/sodipodi-0.dtd"
   xmlns:inkscape="http://www.inkscape.org/namespaces/inkscape"
   version="1.1"
   x="0px"
   y="0px"
   width="512px"
   height="512px"
   viewBox="0 0 512 512"
   enable-background="new 0 0 512 512"
   xml:space="preserve"
   id="svg3130"
   inkscape:version="0.48.1 r9760"
   sodipodi:docname="quanto_icon.svg"
   inkscape:export-filename="/home/scratch/Quanto/quantomatic/gui/resources/icons/quanto_icon_32.png"
   inkscape:export-xdpi="5.625"
   inkscape:export-ydpi="5.625"><metadata
     id="metadata3238"><rdf:RDF><cc:Work
         rdf:about=""><dc:format>image/svg+xml</dc:format><dc:type
           rdf:resource="http://purl.org/dc/dcmitype/StillImage" /><dc:title></dc:title></cc:Work></rdf:RDF></metadata><defs
     id="defs3236"><linearGradient
   y2="355.22119"
   x2="217.8725"
   y1="105.0674"
   x1="217.8726"
   gradientUnits="userSpaceOnUse"
   id="linearGradient5169">
				<stop
   id="stop5171"
   style="stop-color:#ffffff;stop-opacity:1;"
   offset="0" />
				<stop
   id="stop5173"
   style="stop-color:#000000"
   offset="1" />
			</linearGradient>
	
<clipPath
   clipPathUnits="userSpaceOnUse"
   id="clipPath5638"><use
     x="0"
     y="0"
     xlink:href="#g5175"
     id="use5640"
     transform="matrix(0.8913858,0,0,0.97674421,28.650408,-34.177434)"
     width="1"
     height="1" /></clipPath><linearGradient
   inkscape:collect="always"
   xlink:href="#SVGID_1_"
   id="linearGradient3066"
   gradientUnits="userSpaceOnUse"
   x1="260.30179"
   y1="107.4463"
   x2="260.3017"
   y2="464.06201" /><linearGradient
   inkscape:collect="always"
   xlink:href="#SVGID_2_"
   id="linearGradient3068"
   gradientUnits="userSpaceOnUse"
   x1="102.8296"
   y1="368.02051"
   x2="320.354"
   y2="150.496" /><linearGradient
   inkscape:collect="always"
   xlink:href="#SVGID_3_"
   id="linearGradient3070"
   gradientUnits="userSpaceOnUse"
   x1="290.26859"
   y1="399.6377"
   x2="400.09259"
   y2="289.81369" /><filter
   inkscape:collect="always"
   id="filter4189"><feGaussianBlur
     inkscape:collect="always"
     stdDeviation="6.0511099"
     id="feGaussianBlur4191" /></filter><filter
   inkscape:collect="always"
   id="filter4197"><feGaussianBlur
     inkscape:collect="always"
     stdDeviation="6.0670761"
     id="feGaussianBlur4199" /></filter><linearGradient
   inkscape:collect="always"
   xlink:href="#SVGID_1_"
   id="linearGradient4230"
   gradientUnits="userSpaceOnUse"
   x1="260.30179"
   y1="107.4463"
   x2="260.3017"
   y2="464.06201" /><linearGradient
   inkscape:collect="always"
   xlink:href="#SVGID_1_"
   id="linearGradient4233"
   gradientUnits="userSpaceOnUse"
   x1="260.30179"
   y1="107.4463"
   x2="260.3017"
   y2="464.06201" />
	
<linearGradient
   inkscape:collect="always"
   xlink:href="#SVGID_3_"
   id="linearGradient4237"
   gradientUnits="userSpaceOnUse"
   x1="290.26859"
   y1="399.6377"
   x2="400.09259"
   y2="289.81369" />
	
	
		



<clipPath
   clipPathUnits="userSpaceOnUse"
   id="clipPath3113"><use
     x="0"
     y="0"
     xlink:href="#icon"
     id="use3115"
     transform="translate(78.696296,58.785185)"
     width="1"
     height="1" /></clipPath><filter
   inkscape:collect="always"
   id="filter3897"
   x="-0.10366826"
   width="1.2073365"
   y="-0.16331658"
   height="1.3266332"><feGaussianBlur
     inkscape:collect="always"
     stdDeviation="25.679013"
     id="feGaussianBlur3899" /></filter></defs><sodipodi:namedview
     pagecolor="#ffffff"
     bordercolor="#666666"
     borderopacity="1"
     objecttolerance="10"
     gridtolerance="10"
     guidetolerance="10"
     inkscape:pageopacity="0"
     inkscape:pageshadow="2"
     inkscape:window-width="1280"
     inkscape:window-height="976"
     id="namedview3234"
     showgrid="false"
     inkscape:zoom="1.0546875"
     inkscape:cx="425.77541"
     inkscape:cy="223.97647"
     inkscape:window-x="-3"
     inkscape:window-y="25"
     inkscape:window-maximized="1"
     inkscape:current-layer="svg3130" /><g
     id="icon"
     transform="matrix(0.98526631,0,0,0.98526631,3.5977446,1.8748208)"
     inkscape:label="#g5175"><g
   transform="matrix(1.2670608,0,0,1.2670608,-74.257074,-72.309413)"
   id="bg-border"
   inkscape:label="#Layer_7_copy"><linearGradient
     y2="464.06201"
     x2="260.3017"
     y1="107.4463"
     x1="260.30179"
     gradientUnits="userSpaceOnUse"
     id="SVGID_1_">
			<stop
   id="stop3143"
   style="stop-color:#8CAEE2"
   offset="0" />
			<stop
   id="stop3145"
   style="stop-color:#6E8CC2"
   offset="0.1343" />
			<stop
   id="stop3147"
   style="stop-color:#49619A"
   offset="0.3285" />
			<stop
   id="stop3149"
   style="stop-color:#2B407A"
   offset="0.5171" />
			<stop
   id="stop3151"
   style="stop-color:#162863"
   offset="0.6961" />
			<stop
   id="stop3153"
   style="stop-color:#091956"
   offset="0.8614" />
			<stop
   id="stop3155"
   style="stop-color:#051451"
   offset="1" />
		</linearGradient><path
     d="m 274.484,441.24 c -10.638,-7.795 -19.921,-17.314 -27.441,-28.175 l 0,0 H 110.194 c -14.295,0.022 -27.638,-5.92 -36.957,-15.31 l 0,0 C 63.852,388.434 57.915,375.096 57.934,360.806 l 0,0 V 159.705 c -0.02,-14.291 5.917,-27.633 15.307,-36.953 l 0,0 c 9.319,-9.39 22.662,-15.328 36.953,-15.306 l 0,0 h 201.101 c 14.292,-0.022 27.631,5.915 36.951,15.303 l 0,0 c 9.39,9.319 15.331,22.66 15.311,36.956 l 0,0 v 69.242 c 24.956,4.098 47.447,16.041 64.454,33.101 l 0,0 c 21.345,21.276 34.68,51.138 34.658,83.676 l 0,0 c 0.021,32.54 -13.313,62.401 -34.661,83.678 l 0,0 c -21.276,21.347 -51.137,34.68 -83.675,34.66 l 0,0 c -0.027,0 -0.056,0 -0.084,0 l 0,0 c -25.934,-0.001 -50.292,-8.523 -69.765,-22.822 l 0,0 z"
     id="path3157"
     style="fill:url(#linearGradient4233)"
     inkscape:connector-curvature="0" /></g><path
   d="m 362.19596,269.83628 c -10.83844,0 -21.24101,1.84611 -30.93909,5.20002 V 128.78201 c 0,-6.03121 -4.88959,-10.9208 -10.91953,-10.9208 H 65.528875 c -6.03121,0 -10.920797,4.88832 -10.920797,10.9208 V 383.5892 c 0,6.03121 4.889587,10.9208 10.920797,10.9208 H 272.44751 c 12.55784,37.54301 47.98232,64.61123 89.74845,64.61123 52.27006,0 94.6431,-42.37178 94.6431,-94.64184 0,-52.27006 -42.37304,-94.64311 -94.6431,-94.64311 z"
   id="bg"
   inkscape:connector-curvature="0"
   style="fill:#8caee2;stroke:#8caee2;stroke-width:103.89898682"
   inkscape:label="#path3160" /><path
   style="font-size:medium;font-style:normal;font-variant:normal;font-weight:normal;font-stretch:normal;text-indent:0;text-align:start;text-decoration:none;line-height:normal;letter-spacing:normal;word-spacing:normal;text-transform:none;direction:ltr;block-progression:tb;writing-mode:lr-tb;text-anchor:start;baseline-shift:baseline;color:#000000;fill:#000000;fill-opacity:1;stroke:none;stroke-width:49.74251556;marker:none;visibility:visible;display:inline;overflow:visible;enable-background:accumulate;font-family:Sans;-inkscape-font-specification:Sans"
   d="m 281.60577,-0.32628284 c -100.04055,0 -181.613589,81.60124384 -181.613589,181.64179284 0,100.04054 81.573039,181.61359 181.613589,181.61359 100.04054,0 181.61358,-81.57305 181.61358,-181.61359 0,-100.040549 -81.57304,-181.64179284 -181.61358,-181.64179284 z m 0,44.90275384 c 75.77695,0 136.71083,60.962089 136.71083,136.739039 0,75.77695 -60.93388,136.71083 -136.71083,136.71083 -75.77695,0 -136.73904,-60.93388 -136.73904,-136.71083 0,-75.77695 60.96209,-136.739039 136.73904,-136.739039 z"
   id="arrow-curve"
   inkscape:connector-curvature="0"
   inkscape:label="#path5134" /><g
   transform="matrix(1.2670608,0,0,1.2670608,-74.257074,-72.309413)"
   id="box"
   inkscape:label="#Layer_1"><linearGradient
     y2="150.496"
     x2="320.354"
     y1="368.02051"
     x1="102.8296"
     gradientUnits="userSpaceOnUse"
     id="SVGID_2_">
			<stop
   id="stop3169"
   style="stop-color:#FBBB1C"
   offset="0" />
			<stop
   id="stop3171"
   style="stop-color:#F7931E"
   offset="1" />
		</linearGradient><path
     inkscape:connector-curvature="0"
     style="fill:url(#linearGradient3068)"
     id="box-fill"
     d="m 312.141,371.427 h -201.1 c -6.407,0 -11.619,-5.212 -11.619,-11.619 v -201.1 c 0,-6.407 5.212,-11.619 11.619,-11.619 h 201.1 c 6.407,0 11.619,5.212 11.619,11.619 v 201.1 c 0,6.407 -5.212,11.619 -11.619,11.619 l 0,0 z"
     inkscape:label="#path3173" /><path
     inkscape:connector-curvature="0"
     id="box-border"
     d="m 312.142,150.088 c 4.76,0 8.619,3.858 8.619,8.619 v 201.101 c 0,4.76 -3.859,8.619 -8.619,8.619 H 111.041 c -4.76,0 -8.619,-3.859 -8.619,-8.619 V 158.707 c 0,-4.76 3.859,-8.619 8.619,-8.619 h 201.101 m 0,-6 H 111.041 c -8.061,0 -14.619,6.558 -14.619,14.619 v 201.101 c 0,8.061 6.558,14.619 14.619,14.619 h 201.101 c 8.062,0 14.619,-6.559 14.619,-14.619 V 158.707 c 0,-8.061 -6.558,-14.619 -14.619,-14.619 l 0,0 z"
     inkscape:label="#path3175" /></g><text
   sodipodi:linespacing="125%"
   id="Q"
   y="371.6741"
   x="92.752594"
   style="font-size:298.37036133px;font-style:normal;font-weight:normal;line-height:125%;letter-spacing:0px;word-spacing:0px;fill:#000000;fill-opacity:1;stroke:none;font-family:Bitstream Vera Sans"
   xml:space="preserve"
   inkscape:label="#text5136"><tspan
     style="font-size:298.37036133px;font-style:normal;font-variant:normal;font-weight:normal;font-stretch:normal;text-align:start;line-height:125%;writing-mode:lr-tb;text-anchor:start;font-family:CoffeeTin;-inkscape-font-specification:CoffeeTin"
     y="371.6741"
     x="92.752594"
     id="tspan5138"
     sodipodi:role="line">Q</tspan></text>


<g
   id="circle"
   transform="matrix(1.2670608,0,0,1.2670608,-74.257074,-72.309413)"
   inkscape:label="#g3181">
		<linearGradient
   id="SVGID_3_"
   gradientUnits="userSpaceOnUse"
   x1="290.26859"
   y1="399.6377"
   x2="400.09259"
   y2="289.81369">
			<stop
   offset="0"
   style="stop-color:#950000"
   id="stop3184" />
			<stop
   offset="1"
   style="stop-color:#FF0000"
   id="stop3186" />
		</linearGradient>
		<path
   d="m 345.18,422.419 c -42.84,0 -77.693,-34.854 -77.693,-77.693 0,-42.839 34.854,-77.693 77.693,-77.693 42.842,0 77.695,34.854 77.695,77.693 0,42.839 -34.854,77.693 -77.695,77.693 l 0,0 z"
   id="circle-fill"
   style="fill:url(#linearGradient4237)"
   inkscape:connector-curvature="0"
   inkscape:label="#path3188" />
		<path
   d="m 345.18,270.031 c 41.253,0 74.695,33.441 74.695,74.694 0,41.253 -33.442,74.694 -74.695,74.694 -41.254,0 -74.695,-33.441 -74.695,-74.694 0,-41.253 33.441,-74.694 74.695,-74.694 m 0,-6 c -44.495,0 -80.695,36.199 -80.695,80.694 0,44.495 36.2,80.694 80.695,80.694 44.495,0 80.695,-36.199 80.695,-80.694 0,-44.495 -36.2,-80.694 -80.695,-80.694 l 0,0 z"
   id="circle-border"
   inkscape:connector-curvature="0"
   inkscape:label="#path3190" />
	</g><polygon
   points="368.44,346.066 383.82,212.533 491.773,292.619 "
   id="arrow-head"
   transform="matrix(1.1481094,-0.16481029,0.16481029,1.1481094,-119.42037,38.616195)"
   inkscape:label="#polygon3195" /></g><g
     id="Square_shine"
     transform="matrix(1.0386947,0,0,1.0386947,-31.829987,15.290127)"
     inkscape:label="#Layer_3">
	
	<mask
   maskUnits="userSpaceOnUse"
   x="38.487"
   y="-45.518"
   width="330.794"
   height="330.793"
   id="SVGID_4_"
   display="inline">
		<g
   id="g3204">
			<linearGradient
   id="SVGID_5_"
   gradientUnits="userSpaceOnUse"
   x1="217.8726"
   y1="105.0674"
   x2="217.8725"
   y2="355.22119">
				<stop
   offset="0"
   style="stop-color:#FFFFFF"
   id="stop3207" />
				<stop
   offset="1"
   style="stop-color:#000000"
   id="stop3209" />
			</linearGradient>
			<path
   d="m 342.949,345.346 c 0,5.453 -4.422,9.875 -9.875,9.875 H 102.671 c -5.454,0 -9.875,-4.422 -9.875,-9.875 V 114.942 c 0,-5.454 4.421,-9.875 9.875,-9.875 h 230.403 c 5.453,0 9.875,4.421 9.875,9.875 v 230.404 z"
   id="path3211"
   inkscape:connector-curvature="0"
   style="fill:url(#SVGID_5_)" />
		</g>
	</mask>
	<circle
   display="inline"
   mask="url(#SVGID_4_)"
   cx="203.884"
   cy="119.879"
   r="165.397"
   id="circle3213"
   sodipodi:cx="203.884"
   sodipodi:cy="119.879"
   sodipodi:rx="165.397"
   sodipodi:ry="165.397"
   style="opacity:0.81000000999999999;fill:#ffffff;display:inline;filter:url(#filter4189)"
   d="m 369.28101,119.879 c 0,91.34624 -74.05076,165.397 -165.39701,165.397 -91.34624,0 -165.397,-74.05076 -165.397,-165.397 0,-91.346245 74.05076,-165.397005 165.397,-165.397005 91.34625,0 165.39701,74.05076 165.39701,165.397005 z" />
</g><path
     sodipodi:type="arc"
     style="fill:#ffffff;fill-opacity:1;stroke:none;opacity:0.30991736;filter:url(#filter3897)"
     id="shine"
     sodipodi:cx="310.51852"
     sodipodi:cy="189.62962"
     sodipodi:rx="297.24445"
     sodipodi:ry="188.68149"
     d="m 607.76297,189.62962 a 297.24445,188.68149 0 1 1 -594.488892,0 297.24445,188.68149 0 1 1 594.488892,0 z"
     transform="translate(-78.696296,-58.785185)"
     clip-path="url(#clipPath3113)"
     inkscape:label="#path3039" /></svg>