<?xml version="1.0" encoding="UTF-8" standalone="no"?>
<!-- Generator: Adobe Illustrator 13.0.0, SVG Export Plug-In . SVG Version: 6.00 Build 14948)  -->

<svg
   xmlns:dc="http://purl.org/dc/elements/1.1/"
   xmlns:cc="http://creativecommons.org/ns#"
   xmlns:rdf="http://www.w3.org/1999/02/22-rdf-syntax-ns#"
   xmlns:svg="http://www.w3.org/2000/svg"
   xmlns="http://www.w3.org/2000/svg"
   xmlns:sodipodi="http://sodipodi.sourceforge.net/DTD/sodipodi-0.dtd"
   xmlns:inkscape="http://www.inkscape.org/namespaces/inkscape"
   version="1.1"
   x="0px"
   y="0px"
   width="512px"
   height="512px"
   viewBox="0 0 512 512"
   enable-background="new 0 0 512 512"
   xml:space="preserve"
   id="svg3130"
   inkscape:version="0.48.1 r9760"
   sodipodi:docname="quanto_icon.svg"
   inkscape:export-filename="/home/scratch/Quanto/quantomatic/gui/icons/quanto_icon_48.png"
   inkscape:export-xdpi="8.4375"
   inkscape:export-ydpi="8.4375"><metadata
   id="metadata3238"><rdf:RDF><cc:Work
       rdf:about=""><dc:format>image/svg+xml</dc:format><dc:type
         rdf:resource="http://purl.org/dc/dcmitype/StillImage" /><dc:title></dc:title></cc:Work></rdf:RDF></metadata><defs
   id="defs3236">
	
</defs><sodipodi:namedview
   pagecolor="#ffffff"
   bordercolor="#666666"
   borderopacity="1"
   objecttolerance="10"
   gridtolerance="10"
   guidetolerance="10"
   inkscape:pageopacity="0"
   inkscape:pageshadow="2"
   inkscape:window-width="1248"
   inkscape:window-height="643"
   id="namedview3234"
   showgrid="false"
   inkscape:zoom="0.52734375"
   inkscape:cx="115.31963"
   inkscape:cy="256"
   inkscape:window-x="26"
   inkscape:window-y="28"
   inkscape:window-maximized="0"
   inkscape:current-layer="svg3130" />
<g
   id="Layer_7"
   display="none">
	<g
   display="inline"
   id="g3133">
		<path
   fill="#8CAEE2"
   d="M370.104,450.164c-41.334,0-78.539-22.857-97.519-58.425H101.847c-19.228,0-34.872-15.644-34.872-34.874    V126.462c0-19.23,15.644-34.875,34.872-34.875h230.405c19.23,0,34.874,15.644,34.874,34.875v102.585    c0.991-0.027,1.984-0.041,2.978-0.041c60.973,0,110.577,49.606,110.577,110.58C480.681,400.56,431.076,450.164,370.104,450.164    L370.104,450.164z"
   id="path3135" />
		<path
   fill="#8CAEE2"
   d="M332.252,116.587c5.453,0,9.875,4.421,9.875,9.875V258.71c8.77-3.034,18.176-4.703,27.977-4.703    c47.264,0,85.578,38.315,85.578,85.579s-38.314,85.578-85.578,85.578c-37.768,0-69.799-24.477-81.153-58.424H101.848    c-5.453,0-9.874-4.422-9.874-9.875V126.462c0-5.454,4.421-9.875,9.874-9.875H332.252 M332.252,66.587H101.848    c-33.015,0-59.874,26.859-59.874,59.875v230.403c0,33.016,26.859,59.875,59.874,59.875h156.741    c24.856,35.977,66.158,58.424,111.515,58.424c18.281,0,36.042-3.592,52.789-10.675c16.15-6.831,30.645-16.6,43.079-29.035    c12.436-12.435,22.204-26.929,29.035-43.08c7.083-16.747,10.675-34.507,10.675-52.788s-3.592-36.041-10.675-52.788    c-6.831-16.151-16.6-30.645-29.035-43.081c-12.435-12.435-26.929-22.204-43.079-29.035c-9.934-4.202-20.222-7.174-30.766-8.898    v-79.322C392.127,93.447,365.268,66.587,332.252,66.587L332.252,66.587z"
   id="path3137" />
	</g>
</g>
<g
   id="Layer_7_copy"
   transform="matrix(1.2670608,0,0,1.2670608,-74.257074,-72.309413)">
	<g
   id="g3140">
		<linearGradient
   id="SVGID_1_"
   gradientUnits="userSpaceOnUse"
   x1="260.30179"
   y1="107.4463"
   x2="260.3017"
   y2="464.06201">
			<stop
   offset="0"
   style="stop-color:#8CAEE2"
   id="stop3143" />
			<stop
   offset="0.1343"
   style="stop-color:#6E8CC2"
   id="stop3145" />
			<stop
   offset="0.3285"
   style="stop-color:#49619A"
   id="stop3147" />
			<stop
   offset="0.5171"
   style="stop-color:#2B407A"
   id="stop3149" />
			<stop
   offset="0.6961"
   style="stop-color:#162863"
   id="stop3151" />
			<stop
   offset="0.8614"
   style="stop-color:#091956"
   id="stop3153" />
			<stop
   offset="1"
   style="stop-color:#051451"
   id="stop3155" />
		</linearGradient>
		<path
   d="m 274.484,441.24 c -10.638,-7.795 -19.921,-17.314 -27.441,-28.175 l 0,0 H 110.194 c -14.295,0.022 -27.638,-5.92 -36.957,-15.31 l 0,0 C 63.852,388.434 57.915,375.096 57.934,360.806 l 0,0 V 159.705 c -0.02,-14.291 5.917,-27.633 15.307,-36.953 l 0,0 c 9.319,-9.39 22.662,-15.328 36.953,-15.306 l 0,0 h 201.101 c 14.292,-0.022 27.631,5.915 36.951,15.303 l 0,0 c 9.39,9.319 15.331,22.66 15.311,36.956 l 0,0 v 69.242 c 24.956,4.098 47.447,16.041 64.454,33.101 l 0,0 c 21.345,21.276 34.68,51.138 34.658,83.676 l 0,0 c 0.021,32.54 -13.313,62.401 -34.661,83.678 l 0,0 c -21.276,21.347 -51.137,34.68 -83.675,34.66 l 0,0 c -0.027,0 -0.056,0 -0.084,0 l 0,0 c -25.934,-0.001 -50.292,-8.523 -69.765,-22.822 l 0,0 z"
   id="path3157"
   style="fill:url(#SVGID_1_)"
   inkscape:connector-curvature="0" />
	</g>
</g>
<g
   id="Layer_7_copy_2"
   transform="matrix(1.2670608,0,0,1.2670608,-74.257074,-72.309413)">
	<path
   d="m 344.461,270.031 c -8.554,0 -16.764,1.457 -24.418,4.104 V 158.707 c 0,-4.76 -3.859,-8.619 -8.618,-8.619 H 110.323 c -4.76,0 -8.619,3.858 -8.619,8.619 v 201.101 c 0,4.76 3.859,8.619 8.619,8.619 h 163.306 c 9.911,29.63 37.869,50.993 70.832,50.993 41.253,0 74.695,-33.441 74.695,-74.694 0,-41.253 -33.442,-74.695 -74.695,-74.695 z"
   id="path3160"
   inkscape:connector-curvature="0"
   style="fill:#8caee2;stroke:#8caee2;stroke-width:82" />
</g>

<path
   sodipodi:type="arc"
   style="fill:none;stroke:#000000;stroke-width:65.47540283;stroke-miterlimit:4;stroke-opacity:1;stroke-dasharray:none"
   id="path5134"
   sodipodi:cx="322.37036"
   sodipodi:cy="174.45926"
   sodipodi:rx="176.35556"
   sodipodi:ry="176.35556"
   d="m 498.72592,174.45926 a 176.35556,176.35556 0 1 1 -352.71112,0 176.35556,176.35556 0 1 1 352.71112,0 z"
   transform="matrix(0.90256791,0,0,0.90256791,2.018215,33.327095)" /><g
   id="Layer_1"
   transform="matrix(1.2670608,0,0,1.2670608,-74.257074,-72.309413)">
	<g
   id="g3166">
		<linearGradient
   id="SVGID_2_"
   gradientUnits="userSpaceOnUse"
   x1="102.8296"
   y1="368.02051"
   x2="320.354"
   y2="150.496">
			<stop
   offset="0"
   style="stop-color:#FBBB1C"
   id="stop3169" />
			<stop
   offset="1"
   style="stop-color:#F7931E"
   id="stop3171" />
		</linearGradient>
		<path
   d="m 312.141,371.427 h -201.1 c -6.407,0 -11.619,-5.212 -11.619,-11.619 v -201.1 c 0,-6.407 5.212,-11.619 11.619,-11.619 h 201.1 c 6.407,0 11.619,5.212 11.619,11.619 v 201.1 c 0,6.407 -5.212,11.619 -11.619,11.619 l 0,0 z"
   id="path3173"
   style="fill:url(#SVGID_2_)"
   inkscape:connector-curvature="0" />
		<path
   d="m 312.142,150.088 c 4.76,0 8.619,3.858 8.619,8.619 v 201.101 c 0,4.76 -3.859,8.619 -8.619,8.619 H 111.041 c -4.76,0 -8.619,-3.859 -8.619,-8.619 V 158.707 c 0,-4.76 3.859,-8.619 8.619,-8.619 h 201.101 m 0,-6 H 111.041 c -8.061,0 -14.619,6.558 -14.619,14.619 v 201.101 c 0,8.061 6.558,14.619 14.619,14.619 h 201.101 c 8.062,0 14.619,-6.559 14.619,-14.619 V 158.707 c 0,-8.061 -6.558,-14.619 -14.619,-14.619 l 0,0 z"
   id="path3175"
   inkscape:connector-curvature="0" />
	</g>
</g>

<text
   xml:space="preserve"
   style="font-size:298.37036133px;font-style:normal;font-weight:normal;line-height:125%;letter-spacing:0px;word-spacing:0px;fill:#000000;fill-opacity:1;stroke:none;font-family:Bitstream Vera Sans"
   x="92.752594"
   y="371.6741"
   id="text5136"
   sodipodi:linespacing="125%"><tspan
     sodipodi:role="line"
     id="tspan5138"
     x="92.752594"
     y="371.6741"
     style="font-size:298.37036133px;font-style:normal;font-variant:normal;font-weight:normal;font-stretch:normal;text-align:start;line-height:125%;writing-mode:lr-tb;text-anchor:start;font-family:CoffeeTin;-inkscape-font-specification:CoffeeTin">Q</tspan></text>
<g
   id="Layer_2"
   transform="matrix(1.2670608,0,0,1.2670608,-74.257074,-72.309413)">
	<g
   id="g3181">
		<linearGradient
   id="SVGID_3_"
   gradientUnits="userSpaceOnUse"
   x1="290.26859"
   y1="399.6377"
   x2="400.09259"
   y2="289.81369">
			<stop
   offset="0"
   style="stop-color:#950000"
   id="stop3184" />
			<stop
   offset="1"
   style="stop-color:#FF0000"
   id="stop3186" />
		</linearGradient>
		<path
   d="m 345.18,422.419 c -42.84,0 -77.693,-34.854 -77.693,-77.693 0,-42.839 34.854,-77.693 77.693,-77.693 42.842,0 77.695,34.854 77.695,77.693 0,42.839 -34.854,77.693 -77.695,77.693 l 0,0 z"
   id="path3188"
   style="fill:url(#SVGID_3_)"
   inkscape:connector-curvature="0" />
		<path
   d="m 345.18,270.031 c 41.253,0 74.695,33.441 74.695,74.694 0,41.253 -33.442,74.694 -74.695,74.694 -41.254,0 -74.695,-33.441 -74.695,-74.694 0,-41.253 33.441,-74.694 74.695,-74.694 m 0,-6 c -44.495,0 -80.695,36.199 -80.695,80.694 0,44.495 36.2,80.694 80.695,80.694 44.495,0 80.695,-36.199 80.695,-80.694 0,-44.495 -36.2,-80.694 -80.695,-80.694 l 0,0 z"
   id="path3190"
   inkscape:connector-curvature="0" />
	</g>
	
		<text
   transform="translate(313.5,386.5)"
   display="none"
   font-size="180"
   id="text3192"
   style="font-size:180px;fill:#470c10;display:none;font-family:RosewoodStd-Regular">M</text>

</g>
<g
   id="Layer_9"
   transform="matrix(1.2701217,-0.07171406,0.07171406,1.2701217,-131.73614,-37.908494)">
	<polygon
   points="368.44,346.066 383.82,212.533 491.773,292.619 "
   id="polygon3195" />
</g>
<g
   id="Layer_3"
   display="none">
	
	<mask
   maskUnits="userSpaceOnUse"
   x="38.487"
   y="-45.518"
   width="330.794"
   height="330.793"
   id="SVGID_4_"
   display="inline">
		<g
   id="g3204">
			<linearGradient
   id="SVGID_5_"
   gradientUnits="userSpaceOnUse"
   x1="217.8726"
   y1="105.0674"
   x2="217.8725"
   y2="355.22119">
				<stop
   offset="0"
   style="stop-color:#FFFFFF"
   id="stop3207" />
				<stop
   offset="1"
   style="stop-color:#000000"
   id="stop3209" />
			</linearGradient>
			<path
   d="m 342.949,345.346 c 0,5.453 -4.422,9.875 -9.875,9.875 H 102.671 c -5.454,0 -9.875,-4.422 -9.875,-9.875 V 114.942 c 0,-5.454 4.421,-9.875 9.875,-9.875 h 230.403 c 5.453,0 9.875,4.421 9.875,9.875 v 230.404 z"
   id="path3211"
   inkscape:connector-curvature="0"
   style="fill:url(#SVGID_5_)" />
		</g>
	</mask>
	<circle
   display="inline"
   opacity="0.81"
   mask="url(#SVGID_4_)"
   fill="#FFFFFF"
   cx="203.884"
   cy="119.879"
   r="165.397"
   id="circle3213" />
</g>

<g
   id="Layer_11">
</g>
</svg>