<?xml version="1.0" encoding="UTF-8" standalone="no"?>
<!-- Generator: Adobe Illustrator 13.0.0, SVG Export Plug-In . SVG Version: 6.00 Build 14948)  -->

<svg
   xmlns:dc="http://purl.org/dc/elements/1.1/"
   xmlns:cc="http://creativecommons.org/ns#"
   xmlns:rdf="http://www.w3.org/1999/02/22-rdf-syntax-ns#"
   xmlns:svg="http://www.w3.org/2000/svg"
   xmlns="http://www.w3.org/2000/svg"
   xmlns:xlink="http://www.w3.org/1999/xlink"
   xmlns:sodipodi="http://sodipodi.sourceforge.net/DTD/sodipodi-0.dtd"
   xmlns:inkscape="http://www.inkscape.org/namespaces/inkscape"
   version="1.1"
   x="0px"
   y="0px"
   width="512px"
   height="512px"
   viewBox="0 0 512 512"
   enable-background="new 0 0 512 512"
   xml:space="preserve"
   id="svg3130"
   inkscape:version="0.48.1 r9760"
   sodipodi:docname="quanto_icon.svg"
   inkscape:export-filename="/home/scratch/Quanto/quantomatic/gui/icons/quanto_icon_128.png"
   inkscape:export-xdpi="22.5"
   inkscape:export-ydpi="22.5"><metadata
   id="metadata3238"><rdf:RDF><cc:Work
       rdf:about=""><dc:format>image/svg+xml</dc:format><dc:type
         rdf:resource="http://purl.org/dc/dcmitype/StillImage" /><dc:title></dc:title></cc:Work></rdf:RDF></metadata><defs
   id="defs3236"><linearGradient
   y2="355.22119"
   x2="217.8725"
   y1="105.0674"
   x1="217.8726"
   gradientUnits="userSpaceOnUse"
   id="linearGradient5169">
				<stop
   id="stop5171"
   style="stop-color:#ffffff;stop-opacity:1;"
   offset="0" />
				<stop
   id="stop5173"
   style="stop-color:#000000"
   offset="1" />
			</linearGradient>
	
<clipPath
   clipPathUnits="userSpaceOnUse"
   id="clipPath5638"><use
     x="0"
     y="0"
     xlink:href="#g5175"
     id="use5640"
     transform="matrix(0.8913858,0,0,0.97674421,28.650408,-34.177434)"
     width="1"
     height="1" /></clipPath></defs><sodipodi:namedview
   pagecolor="#ffffff"
   bordercolor="#666666"
   borderopacity="1"
   objecttolerance="10"
   gridtolerance="10"
   guidetolerance="10"
   inkscape:pageopacity="0"
   inkscape:pageshadow="2"
   inkscape:window-width="1248"
   inkscape:window-height="643"
   id="namedview3234"
   showgrid="false"
   inkscape:zoom="0.52734375"
   inkscape:cx="115.31963"
   inkscape:cy="192.13169"
   inkscape:window-x="26"
   inkscape:window-y="143"
   inkscape:window-maximized="0"
   inkscape:current-layer="svg3130" />
<g
   id="Layer_7"
   display="none">
	<g
   display="inline"
   id="g3133">
		<path
   fill="#8CAEE2"
   d="M370.104,450.164c-41.334,0-78.539-22.857-97.519-58.425H101.847c-19.228,0-34.872-15.644-34.872-34.874    V126.462c0-19.23,15.644-34.875,34.872-34.875h230.405c19.23,0,34.874,15.644,34.874,34.875v102.585    c0.991-0.027,1.984-0.041,2.978-0.041c60.973,0,110.577,49.606,110.577,110.58C480.681,400.56,431.076,450.164,370.104,450.164    L370.104,450.164z"
   id="path3135" />
		<path
   fill="#8CAEE2"
   d="M332.252,116.587c5.453,0,9.875,4.421,9.875,9.875V258.71c8.77-3.034,18.176-4.703,27.977-4.703    c47.264,0,85.578,38.315,85.578,85.579s-38.314,85.578-85.578,85.578c-37.768,0-69.799-24.477-81.153-58.424H101.848    c-5.453,0-9.874-4.422-9.874-9.875V126.462c0-5.454,4.421-9.875,9.874-9.875H332.252 M332.252,66.587H101.848    c-33.015,0-59.874,26.859-59.874,59.875v230.403c0,33.016,26.859,59.875,59.874,59.875h156.741    c24.856,35.977,66.158,58.424,111.515,58.424c18.281,0,36.042-3.592,52.789-10.675c16.15-6.831,30.645-16.6,43.079-29.035    c12.436-12.435,22.204-26.929,29.035-43.08c7.083-16.747,10.675-34.507,10.675-52.788s-3.592-36.041-10.675-52.788    c-6.831-16.151-16.6-30.645-29.035-43.081c-12.435-12.435-26.929-22.204-43.079-29.035c-9.934-4.202-20.222-7.174-30.766-8.898    v-79.322C392.127,93.447,365.268,66.587,332.252,66.587L332.252,66.587z"
   id="path3137" />
	</g>
</g>






<g
   id="g5175"><g
     transform="matrix(1.2670608,0,0,1.2670608,-74.257074,-72.309413)"
     id="Layer_7_copy">
	<g
   id="g3140">
		<linearGradient
   y2="464.06201"
   x2="260.3017"
   y1="107.4463"
   x1="260.30179"
   gradientUnits="userSpaceOnUse"
   id="SVGID_1_">
			<stop
   id="stop3143"
   style="stop-color:#8CAEE2"
   offset="0" />
			<stop
   id="stop3145"
   style="stop-color:#6E8CC2"
   offset="0.1343" />
			<stop
   id="stop3147"
   style="stop-color:#49619A"
   offset="0.3285" />
			<stop
   id="stop3149"
   style="stop-color:#2B407A"
   offset="0.5171" />
			<stop
   id="stop3151"
   style="stop-color:#162863"
   offset="0.6961" />
			<stop
   id="stop3153"
   style="stop-color:#091956"
   offset="0.8614" />
			<stop
   id="stop3155"
   style="stop-color:#051451"
   offset="1" />
		</linearGradient>
		<path
   inkscape:connector-curvature="0"
   style="fill:url(#SVGID_1_)"
   id="path3157"
   d="m 274.484,441.24 c -10.638,-7.795 -19.921,-17.314 -27.441,-28.175 l 0,0 H 110.194 c -14.295,0.022 -27.638,-5.92 -36.957,-15.31 l 0,0 C 63.852,388.434 57.915,375.096 57.934,360.806 l 0,0 V 159.705 c -0.02,-14.291 5.917,-27.633 15.307,-36.953 l 0,0 c 9.319,-9.39 22.662,-15.328 36.953,-15.306 l 0,0 h 201.101 c 14.292,-0.022 27.631,5.915 36.951,15.303 l 0,0 c 9.39,9.319 15.331,22.66 15.311,36.956 l 0,0 v 69.242 c 24.956,4.098 47.447,16.041 64.454,33.101 l 0,0 c 21.345,21.276 34.68,51.138 34.658,83.676 l 0,0 c 0.021,32.54 -13.313,62.401 -34.661,83.678 l 0,0 c -21.276,21.347 -51.137,34.68 -83.675,34.66 l 0,0 c -0.027,0 -0.056,0 -0.084,0 l 0,0 c -25.934,-0.001 -50.292,-8.523 -69.765,-22.822 l 0,0 z" />
	</g>
</g><g
     transform="matrix(1.2670608,0,0,1.2670608,-74.257074,-72.309413)"
     id="Layer_7_copy_2">
	<path
   style="fill:#8caee2;stroke:#8caee2;stroke-width:82"
   inkscape:connector-curvature="0"
   id="path3160"
   d="m 344.461,270.031 c -8.554,0 -16.764,1.457 -24.418,4.104 V 158.707 c 0,-4.76 -3.859,-8.619 -8.618,-8.619 H 110.323 c -4.76,0 -8.619,3.858 -8.619,8.619 v 201.101 c 0,4.76 3.859,8.619 8.619,8.619 h 163.306 c 9.911,29.63 37.869,50.993 70.832,50.993 41.253,0 74.695,-33.441 74.695,-74.694 0,-41.253 -33.442,-74.695 -74.695,-74.695 z" />
</g><path
     style="font-size:medium;font-style:normal;font-variant:normal;font-weight:normal;font-stretch:normal;text-indent:0;text-align:start;text-decoration:none;line-height:normal;letter-spacing:normal;word-spacing:normal;text-transform:none;direction:ltr;block-progression:tb;writing-mode:lr-tb;text-anchor:start;baseline-shift:baseline;color:#000000;fill:#000000;fill-opacity:1;stroke:none;stroke-width:49.74251556;marker:none;visibility:visible;display:inline;overflow:visible;enable-background:accumulate;font-family:Sans;-inkscape-font-specification:Sans"
     d="m 281.60577,-0.32628284 c -100.04055,0 -181.613589,81.60124384 -181.613589,181.64179284 0,100.04054 81.573039,181.61359 181.613589,181.61359 100.04054,0 181.61358,-81.57305 181.61358,-181.61359 0,-100.040549 -81.57304,-181.64179284 -181.61358,-181.64179284 z m 0,44.90275384 c 75.77695,0 136.71083,60.962089 136.71083,136.739039 0,75.77695 -60.93388,136.71083 -136.71083,136.71083 -75.77695,0 -136.73904,-60.93388 -136.73904,-136.71083 0,-75.77695 60.96209,-136.739039 136.73904,-136.739039 z"
     id="path5134"
     inkscape:connector-curvature="0" /><g
     transform="matrix(1.2670608,0,0,1.2670608,-74.257074,-72.309413)"
     id="Layer_1">
	<g
   id="g3166">
		<linearGradient
   y2="150.496"
   x2="320.354"
   y1="368.02051"
   x1="102.8296"
   gradientUnits="userSpaceOnUse"
   id="SVGID_2_">
			<stop
   id="stop3169"
   style="stop-color:#FBBB1C"
   offset="0" />
			<stop
   id="stop3171"
   style="stop-color:#F7931E"
   offset="1" />
		</linearGradient>
		<path
   inkscape:connector-curvature="0"
   style="fill:url(#SVGID_2_)"
   id="path3173"
   d="m 312.141,371.427 h -201.1 c -6.407,0 -11.619,-5.212 -11.619,-11.619 v -201.1 c 0,-6.407 5.212,-11.619 11.619,-11.619 h 201.1 c 6.407,0 11.619,5.212 11.619,11.619 v 201.1 c 0,6.407 -5.212,11.619 -11.619,11.619 l 0,0 z" />
		<path
   inkscape:connector-curvature="0"
   id="path3175"
   d="m 312.142,150.088 c 4.76,0 8.619,3.858 8.619,8.619 v 201.101 c 0,4.76 -3.859,8.619 -8.619,8.619 H 111.041 c -4.76,0 -8.619,-3.859 -8.619,-8.619 V 158.707 c 0,-4.76 3.859,-8.619 8.619,-8.619 h 201.101 m 0,-6 H 111.041 c -8.061,0 -14.619,6.558 -14.619,14.619 v 201.101 c 0,8.061 6.558,14.619 14.619,14.619 h 201.101 c 8.062,0 14.619,-6.559 14.619,-14.619 V 158.707 c 0,-8.061 -6.558,-14.619 -14.619,-14.619 l 0,0 z" />
	</g>
</g><text
     sodipodi:linespacing="125%"
     id="text5136"
     y="371.6741"
     x="92.752594"
     style="font-size:298.37036133px;font-style:normal;font-weight:normal;line-height:125%;letter-spacing:0px;word-spacing:0px;fill:#000000;fill-opacity:1;stroke:none;font-family:Bitstream Vera Sans"
     xml:space="preserve"><tspan
       style="font-size:298.37036133px;font-style:normal;font-variant:normal;font-weight:normal;font-stretch:normal;text-align:start;line-height:125%;writing-mode:lr-tb;text-anchor:start;font-family:CoffeeTin;-inkscape-font-specification:CoffeeTin"
       y="371.6741"
       x="92.752594"
       id="tspan5138"
       sodipodi:role="line">Q</tspan></text>
<g
     transform="matrix(1.2670608,0,0,1.2670608,-74.257074,-72.309413)"
     id="Layer_2">
	<g
   id="g3181">
		<linearGradient
   y2="289.81369"
   x2="400.09259"
   y1="399.6377"
   x1="290.26859"
   gradientUnits="userSpaceOnUse"
   id="SVGID_3_">
			<stop
   id="stop3184"
   style="stop-color:#950000"
   offset="0" />
			<stop
   id="stop3186"
   style="stop-color:#FF0000"
   offset="1" />
		</linearGradient>
		<path
   inkscape:connector-curvature="0"
   style="fill:url(#SVGID_3_)"
   id="path3188"
   d="m 345.18,422.419 c -42.84,0 -77.693,-34.854 -77.693,-77.693 0,-42.839 34.854,-77.693 77.693,-77.693 42.842,0 77.695,34.854 77.695,77.693 0,42.839 -34.854,77.693 -77.695,77.693 l 0,0 z" />
		<path
   inkscape:connector-curvature="0"
   id="path3190"
   d="m 345.18,270.031 c 41.253,0 74.695,33.441 74.695,74.694 0,41.253 -33.442,74.694 -74.695,74.694 -41.254,0 -74.695,-33.441 -74.695,-74.694 0,-41.253 33.441,-74.694 74.695,-74.694 m 0,-6 c -44.495,0 -80.695,36.199 -80.695,80.694 0,44.495 36.2,80.694 80.695,80.694 44.495,0 80.695,-36.199 80.695,-80.694 0,-44.495 -36.2,-80.694 -80.695,-80.694 l 0,0 z" />
	</g>
	
		<text
   style="font-size:180px;fill:#470c10;display:none;font-family:RosewoodStd-Regular"
   id="text3192"
   font-size="180"
   display="none"
   transform="translate(313.5,386.5)">M</text>

</g><g
     inkscape:transform-center-y="-77.922634"
     inkscape:transform-center-x="-64.220746"
     transform="matrix(1.1481094,-0.16481029,0.16481029,1.1481094,-119.42037,38.616195)"
     id="Layer_9">
	<polygon
   id="polygon3195"
   points="491.773,292.619 368.44,346.066 383.82,212.533 " />
</g></g>
<g
   id="Layer_3"
   display="none">
	
	<mask
   maskUnits="userSpaceOnUse"
   x="38.487"
   y="-45.518"
   width="330.794"
   height="330.793"
   id="SVGID_4_"
   display="inline">
		<g
   id="g3204">
			<linearGradient
   id="SVGID_5_"
   gradientUnits="userSpaceOnUse"
   x1="217.8726"
   y1="105.0674"
   x2="217.8725"
   y2="355.22119">
				<stop
   offset="0"
   style="stop-color:#FFFFFF"
   id="stop3207" />
				<stop
   offset="1"
   style="stop-color:#000000"
   id="stop3209" />
			</linearGradient>
			<path
   d="m 342.949,345.346 c 0,5.453 -4.422,9.875 -9.875,9.875 H 102.671 c -5.454,0 -9.875,-4.422 -9.875,-9.875 V 114.942 c 0,-5.454 4.421,-9.875 9.875,-9.875 h 230.403 c 5.453,0 9.875,4.421 9.875,9.875 v 230.404 z"
   id="path3211"
   inkscape:connector-curvature="0"
   style="fill:url(#SVGID_5_)" />
		</g>
	</mask>
	<circle
   display="inline"
   opacity="0.81"
   mask="url(#SVGID_4_)"
   fill="#FFFFFF"
   cx="203.884"
   cy="119.879"
   r="165.397"
   id="circle3213" />
</g>

<g
   id="Layer_11">
</g>
<path
   sodipodi:type="arc"
   style="fill:#ffffff;fill-opacity:0.2408257;stroke:none"
   id="path5159"
   sodipodi:cx="256"
   sodipodi:cy="83.437035"
   sodipodi:rx="225.65926"
   sodipodi:ry="199.11111"
   d="m 481.65926,83.437035 a 225.65926,199.11111 0 1 1 -451.318516,0 225.65926,199.11111 0 1 1 451.318516,0 z"
   transform="matrix(1.1218487,0,0,1.0238095,-32.141423,34.991182)"
   clip-path="url(#clipPath5638)" /></svg>