<?xml version="1.0" encoding="utf-8"?>
<!-- Generator: Adobe Illustrator 13.0.0, SVG Export Plug-In . SVG Version: 6.00 Build 14948)  -->
<!DOCTYPE svg PUBLIC "-//W3C//DTD SVG 1.1//EN" "http://www.w3.org/Graphics/SVG/1.1/DTD/svg11.dtd">
<svg version="1.1" xmlns="http://www.w3.org/2000/svg" xmlns:xlink="http://www.w3.org/1999/xlink" x="0px" y="0px" width="512px"
	 height="512px" viewBox="0 0 512 512" enable-background="new 0 0 512 512" xml:space="preserve">
<g id="Layer_7" display="none">
	<g display="inline">
		<path fill="#8CAEE2" d="M370.104,450.164c-41.334,0-78.539-22.857-97.519-58.425H101.847c-19.228,0-34.872-15.644-34.872-34.874
			V126.462c0-19.23,15.644-34.875,34.872-34.875h230.405c19.23,0,34.874,15.644,34.874,34.875v102.585
			c0.991-0.027,1.984-0.041,2.978-0.041c60.973,0,110.577,49.606,110.577,110.58C480.681,400.56,431.076,450.164,370.104,450.164
			L370.104,450.164z"/>
		<path fill="#8CAEE2" d="M332.252,116.587c5.453,0,9.875,4.421,9.875,9.875V258.71c8.77-3.034,18.176-4.703,27.977-4.703
			c47.264,0,85.578,38.315,85.578,85.579s-38.314,85.578-85.578,85.578c-37.768,0-69.799-24.477-81.153-58.424H101.848
			c-5.453,0-9.874-4.422-9.874-9.875V126.462c0-5.454,4.421-9.875,9.874-9.875H332.252 M332.252,66.587H101.848
			c-33.015,0-59.874,26.859-59.874,59.875v230.403c0,33.016,26.859,59.875,59.874,59.875h156.741
			c24.856,35.977,66.158,58.424,111.515,58.424c18.281,0,36.042-3.592,52.789-10.675c16.15-6.831,30.645-16.6,43.079-29.035
			c12.436-12.435,22.204-26.929,29.035-43.08c7.083-16.747,10.675-34.507,10.675-52.788s-3.592-36.041-10.675-52.788
			c-6.831-16.151-16.6-30.645-29.035-43.081c-12.435-12.435-26.929-22.204-43.079-29.035c-9.934-4.202-20.222-7.174-30.766-8.898
			v-79.322C392.127,93.447,365.268,66.587,332.252,66.587L332.252,66.587z"/>
	</g>
</g>
<g id="Layer_7_copy">
	<g>
		<linearGradient id="SVGID_1_" gradientUnits="userSpaceOnUse" x1="260.3018" y1="107.4463" x2="260.3017" y2="464.062">
			<stop  offset="0" style="stop-color:#8CAEE2"/>
			<stop  offset="0.1343" style="stop-color:#6E8CC2"/>
			<stop  offset="0.3285" style="stop-color:#49619A"/>
			<stop  offset="0.5171" style="stop-color:#2B407A"/>
			<stop  offset="0.6961" style="stop-color:#162863"/>
			<stop  offset="0.8614" style="stop-color:#091956"/>
			<stop  offset="1" style="stop-color:#051451"/>
		</linearGradient>
		<path fill="url(#SVGID_1_)" d="M274.484,441.24c-10.638-7.795-19.921-17.314-27.441-28.175l0,0H110.194
			c-14.295,0.022-27.638-5.92-36.957-15.31l0,0c-9.385-9.321-15.322-22.659-15.303-36.949l0,0V159.705
			c-0.02-14.291,5.917-27.633,15.307-36.953l0,0c9.319-9.39,22.662-15.328,36.953-15.306l0,0h201.101
			c14.292-0.022,27.631,5.915,36.951,15.303l0,0c9.39,9.319,15.331,22.66,15.311,36.956l0,0v69.242
			c24.956,4.098,47.447,16.041,64.454,33.101l0,0c21.345,21.276,34.68,51.138,34.658,83.676l0,0
			c0.021,32.54-13.313,62.401-34.661,83.678l0,0c-21.276,21.347-51.137,34.68-83.675,34.66l0,0c-0.027,0-0.056,0-0.084,0l0,0
			C318.315,464.061,293.957,455.539,274.484,441.24L274.484,441.24z"/>
	</g>
</g>
<g id="Layer_7_copy_2">
	<path fill="#8CAEE2" stroke="#8CAEE2" stroke-width="82" d="M344.461,270.031c-8.554,0-16.764,1.457-24.418,4.104V158.707
		c0-4.76-3.859-8.619-8.618-8.619H110.323c-4.76,0-8.619,3.858-8.619,8.619v201.101c0,4.76,3.859,8.619,8.619,8.619h163.306
		c9.911,29.63,37.869,50.993,70.832,50.993c41.253,0,74.695-33.441,74.695-74.694S385.714,270.031,344.461,270.031z"/>
</g>
<g id="Layer_10">
	<path d="M124.93,199.634c0.015-94.446,76.551-170.984,170.999-170.997l0,0c94.446,0.013,170.984,76.551,170.997,170.997l0,0
		c-0.013,94.448-76.551,170.986-170.997,170.999l0,0C201.481,370.62,124.945,294.082,124.93,199.634L124.93,199.634z
		 M203.299,107.006c-23.736,23.768-38.358,56.392-38.369,92.628l0,0c0.011,36.238,14.632,68.86,38.369,92.629l0,0
		c23.77,23.738,56.393,38.358,92.629,38.369l0,0c36.237-0.011,68.859-14.631,92.629-38.369l0,0
		c23.737-23.77,38.359-56.391,38.368-92.629l0,0c-0.009-36.237-14.631-68.861-38.368-92.628l0,0
		c-23.77-23.738-56.392-38.36-92.629-38.368l0,0C259.69,68.646,227.069,83.268,203.299,107.006L203.299,107.006z"/>
</g>
<g id="Layer_1">
	<g>
		<linearGradient id="SVGID_2_" gradientUnits="userSpaceOnUse" x1="102.8296" y1="368.0205" x2="320.354" y2="150.496">
			<stop  offset="0" style="stop-color:#FBBB1C"/>
			<stop  offset="1" style="stop-color:#F7931E"/>
		</linearGradient>
		<path fill="url(#SVGID_2_)" d="M312.141,371.427h-201.1c-6.407,0-11.619-5.212-11.619-11.619v-201.1
			c0-6.407,5.212-11.619,11.619-11.619h201.1c6.407,0,11.619,5.212,11.619,11.619v201.1
			C323.76,366.215,318.548,371.427,312.141,371.427L312.141,371.427z"/>
		<path d="M312.142,150.088c4.76,0,8.619,3.858,8.619,8.619v201.101c0,4.76-3.859,8.619-8.619,8.619H111.041
			c-4.76,0-8.619-3.859-8.619-8.619V158.707c0-4.76,3.859-8.619,8.619-8.619H312.142 M312.142,144.088H111.041
			c-8.061,0-14.619,6.558-14.619,14.619v201.101c0,8.061,6.558,14.619,14.619,14.619h201.101c8.062,0,14.619-6.559,14.619-14.619
			V158.707C326.761,150.646,320.203,144.088,312.142,144.088L312.142,144.088z"/>
	</g>
</g>
<g id="Layer_4">
	<text transform="matrix(1 0 0 1 124.6875 320.3076)" font-family="'RosewoodStd-Regular'" font-size="237.0123">Q</text>
</g>
<g id="Layer_2">
	<g>
		<linearGradient id="SVGID_3_" gradientUnits="userSpaceOnUse" x1="290.2686" y1="399.6377" x2="400.0926" y2="289.8137">
			<stop  offset="0" style="stop-color:#950000"/>
			<stop  offset="1" style="stop-color:#FF0000"/>
		</linearGradient>
		<path fill="url(#SVGID_3_)" d="M345.18,422.419c-42.84,0-77.693-34.854-77.693-77.693s34.854-77.693,77.693-77.693
			c42.842,0,77.695,34.854,77.695,77.693S388.021,422.419,345.18,422.419L345.18,422.419z"/>
		<path d="M345.18,270.031c41.253,0,74.695,33.441,74.695,74.694s-33.442,74.694-74.695,74.694
			c-41.254,0-74.695-33.441-74.695-74.694S303.926,270.031,345.18,270.031 M345.18,264.031c-44.495,0-80.695,36.199-80.695,80.694
			s36.2,80.694,80.695,80.694s80.695-36.199,80.695-80.694S389.675,264.031,345.18,264.031L345.18,264.031z"/>
	</g>
	
		<text transform="matrix(1 0 0 1 313.5 386.5)" display="none" fill="#470C10" font-family="'RosewoodStd-Regular'" font-size="180">M</text>
</g>
<g id="Layer_9">
	<polygon points="383.82,212.533 491.773,292.619 368.44,346.066 	"/>
</g>
<g id="Layer_3" display="none">
	<defs>
		<filter id="Adobe_OpacityMaskFilter" filterUnits="userSpaceOnUse" x="38.487" y="-45.518" width="330.794" height="330.793">
			
				<feColorMatrix  type="matrix" values="-1 0 0 0 1  0 -1 0 0 1  0 0 -1 0 1  0 0 0 1 0" color-interpolation-filters="sRGB" result="source"/>
		</filter>
	</defs>
	<mask maskUnits="userSpaceOnUse" x="38.487" y="-45.518" width="330.794" height="330.793" id="SVGID_4_" display="inline">
		<g filter="url(#Adobe_OpacityMaskFilter)">
			<linearGradient id="SVGID_5_" gradientUnits="userSpaceOnUse" x1="217.8726" y1="105.0674" x2="217.8725" y2="355.2212">
				<stop  offset="0" style="stop-color:#FFFFFF"/>
				<stop  offset="1" style="stop-color:#000000"/>
			</linearGradient>
			<path fill="url(#SVGID_5_)" d="M342.949,345.346c0,5.453-4.422,9.875-9.875,9.875H102.671c-5.454,0-9.875-4.422-9.875-9.875
				V114.942c0-5.454,4.421-9.875,9.875-9.875h230.403c5.453,0,9.875,4.421,9.875,9.875V345.346z"/>
		</g>
	</mask>
	<circle display="inline" opacity="0.81" mask="url(#SVGID_4_)" fill="#FFFFFF" cx="203.884" cy="119.879" r="165.397"/>
</g>
<g id="Layer_7_copy_3">
	<defs>
		<filter id="Adobe_OpacityMaskFilter_1_" filterUnits="userSpaceOnUse" x="30.5" y="-61.5" width="473.068" height="385.787">
			<feColorMatrix  type="matrix" values="1 0 0 0 0  0 1 0 0 0  0 0 1 0 0  0 0 0 1 0"/>
		</filter>
	</defs>
	<mask maskUnits="userSpaceOnUse" x="30.5" y="-61.5" width="473.068" height="385.787" id="SVGID_6_">
		<g filter="url(#Adobe_OpacityMaskFilter_1_)">
			<linearGradient id="SVGID_7_" gradientUnits="userSpaceOnUse" x1="274.8535" y1="463.0615" x2="274.8535" y2="28.6377">
				<stop  offset="0" style="stop-color:#FFFFFF"/>
				<stop  offset="1" style="stop-color:#000000"/>
			</linearGradient>
			<path fill="url(#SVGID_7_)" d="M491.773,292.619l-37.668-27.944c8.253-20.051,12.817-42.01,12.82-65.041
				c-0.013-94.446-76.551-170.984-170.997-170.997c-60.067,0.008-112.881,30.975-143.382,77.809h-42.353
				c-14.291-0.022-27.634,5.917-36.953,15.306c-9.39,9.32-15.327,22.662-15.307,36.953v201.102
				c-0.02,14.29,5.917,27.628,15.303,36.949c9.319,9.39,22.662,15.332,36.957,15.31h136.849c7.521,10.86,16.804,20.38,27.441,28.175
				c19.473,14.299,43.831,22.82,69.765,22.821h0.084c32.538,0.02,62.398-13.313,83.675-34.66
				c21.348-21.276,34.683-51.138,34.661-83.678c0.009-12.852-2.074-25.281-5.903-36.934L491.773,292.619z M295.929,68.638
				c36.237,0.008,68.859,14.63,92.629,38.368c23.737,23.768,38.359,56.392,38.368,92.628c-0.004,14.051-2.213,27.554-6.289,40.211
				l-36.816-27.312l-2.285,19.844c-5.813-1.926-11.82-3.419-17.979-4.43v-69.242c0.021-14.296-5.921-27.637-15.311-36.956
				c-9.32-9.388-22.659-15.325-36.951-15.303H203.873C227.593,83.042,259.979,68.646,295.929,68.638z"/>
		</g>
	</mask>
	<ellipse opacity="0.5" mask="url(#SVGID_6_)" fill="#FFFFFF" cx="267.034" cy="131.393" rx="236.534" ry="192.894"/>
</g>
<g id="Layer_11">
</g>
</svg>
